<?xml version="1.0" encoding="utf-8"?>
<!-- Generator: Adobe Illustrator 27.9.0, SVG Export Plug-In . SVG Version: 6.00 Build 0)  -->
<svg version="1.1" id="Layer_1" xmlns="http://www.w3.org/2000/svg" xmlns:xlink="http://www.w3.org/1999/xlink" x="0px" y="0px"
	 viewBox="0 0 378.64 381.6" style="enable-background:new 0 0 378.64 381.6;" xml:space="preserve">
<style type="text/css">
	.st0{fill:url(#SVGID_1_);}
</style>
<linearGradient id="SVGID_1_" gradientUnits="userSpaceOnUse" x1="103.2184" y1="46.916" x2="269.0945" y2="334.2217">
	<stop  offset="0" style="stop-color:#69C8C4"/>
	<stop  offset="1" style="stop-color:#3A91CE"/>
</linearGradient>
<path class="st0" d="M369.16,185.59c0.02-0.29-0.04-0.58-0.07-0.85c-0.09-0.58-0.16-1.17-0.21-1.76c-0.04-0.48-0.07-0.94-0.2-1.41
	c-0.02-0.25-0.11-0.54-0.11-0.81c-0.07-0.21-0.09-0.41-0.12-0.63c-0.07-0.33-0.14-0.67-0.19-0.99c-0.09-0.5-0.24-0.99-0.32-1.47
	c-0.08-0.41-0.18-0.83-0.3-1.24c-0.06-0.31-0.16-0.61-0.25-0.93c-0.13-0.6-0.33-1.23-0.54-1.82c-0.02-0.05-0.04-0.08-0.04-0.13
	c-0.41-1.28-0.88-2.57-1.4-3.77c-3.37-7.85-9.06-13.64-16-15.01c-1.94-0.39-3.99-0.39-6.06-0.44c-4.21-0.25-8.76-0.97-13.4-2.87
	c-3.68-1.45-7.46-3.96-10.71-7.43c-2.77-3.98-4.87-8.8-6.13-13.66c-1.62-6.08-2.34-12.26-2.63-18.21c-0.09-2.93-0.12-5.82-0.53-8.72
	c-1.16-8.85-5.66-17.5-12.31-23.93c-2.4-2.56-5.13-4.82-8.09-6.71c-6.31-4.04-13.56-6.24-20.76-6.47
	c-8.43-0.17-17.39-0.93-26.07-3.85c-3.6-1.21-7.09-2.93-10.05-5.04c-2.63-2.42-4.7-5.16-6.13-7.94c-3.45-6.68-4.16-13.29-4.25-19.16
	c-0.11-4.98-2.4-9.68-6.38-13.35c-3.66-3.41-8.63-5.99-14.27-7.59c-6.36-1.82-13.59-2.4-20.45-1.83c-0.29,0.03-0.55,0.04-0.84,0.07
	c-0.59,0.06-1.14,0.12-1.76,0.2c-0.46,0.06-0.92,0.12-1.42,0.2c-0.29,0.04-0.58,0.07-0.8,0.11c-0.21,0.04-0.44,0.09-0.63,0.12
	c-0.36,0.06-0.62,0.12-1,0.19c-0.53,0.1-0.98,0.19-1.46,0.31c-0.42,0.1-0.82,0.19-1.25,0.3c-0.3,0.07-0.65,0.17-0.92,0.25
	c-0.62,0.16-1.24,0.36-1.83,0.54c-0.02,0.01-0.1,0.03-0.13,0.04c-1.29,0.42-2.54,0.87-3.76,1.4c-7.87,3.36-13.69,9.1-15.02,16
	c-0.36,1.97-0.43,3.98-0.44,6.06c-0.28,4.22-0.97,8.77-2.88,13.4c-1.44,3.71-3.97,7.49-7.42,10.72c-3.98,2.79-8.81,4.89-13.67,6.14
	c-6.06,1.62-12.23,2.33-18.21,2.62c-2.91,0.07-5.81,0.12-8.72,0.53C90.12,68,81.44,72.5,75,79.19c-2.5,2.39-4.74,5.07-6.6,7.98
	c-4.02,6.29-6.27,13.61-6.47,20.76c-0.16,8.43-0.97,17.44-3.85,26.08c-1.18,3.59-2.96,7.07-5.04,10.05
	c-2.43,2.62-5.14,4.68-7.94,6.14c-6.69,3.47-13.31,4.19-19.16,4.24c-4.98,0.14-9.73,2.41-13.35,6.38C9.2,164.5,6.63,169.48,5,175.09
	c-1.8,6.37-2.41,13.53-1.83,20.45c0.01,0.28,0.05,0.56,0.07,0.85c0.08,0.59,0.11,1.17,0.2,1.76c0.05,0.46,0.12,0.94,0.2,1.41
	c0.05,0.27,0.08,0.54,0.11,0.81c0.05,0.22,0.1,0.42,0.12,0.63c0.05,0.32,0.14,0.66,0.19,0.99c0.1,0.49,0.2,0.98,0.31,1.47
	c0.12,0.42,0.2,0.83,0.3,1.24c0.05,0.32,0.19,0.62,0.25,0.93c0.12,0.61,0.32,1.21,0.54,1.82c0.03,0.04,0.04,0.08,0.04,0.12
	c0.44,1.29,0.87,2.56,1.4,3.77c3.31,7.85,9.15,13.66,16,15.01c1.95,0.4,3.97,0.4,6.06,0.44c4.19,0.24,8.73,0.98,13.39,2.87
	c3.72,1.46,7.55,3.96,10.72,7.43c2.79,3.97,4.9,8.79,6.14,13.66c1.6,6.08,2.3,12.26,2.62,18.21c0.04,2.9,0.13,5.82,0.53,8.72
	c1.21,8.87,5.71,17.51,12.34,23.95c2.39,2.56,5.12,4.81,8.06,6.69c6.33,4.05,13.64,6.23,20.76,6.47c8.44,0.16,17.39,0.93,26.08,3.85
	c3.58,1.21,7.05,2.93,10.05,5.04c2.66,2.43,4.66,5.16,6.13,7.94c3.51,6.69,4.25,13.29,4.25,19.16c0.1,4.99,2.46,9.68,6.38,13.35
	c3.67,3.41,8.65,5.99,14.27,7.59c6.36,1.82,13.54,2.39,20.45,1.83c0.27-0.02,0.6-0.05,0.84-0.07c0.66-0.06,1.16-0.12,1.76-0.2
	c0.44-0.06,0.91-0.12,1.42-0.2c0.25-0.04,0.57-0.07,0.8-0.11c0.23-0.04,0.41-0.08,0.63-0.12c0.32-0.05,0.65-0.13,0.99-0.19
	c0.48-0.11,0.97-0.2,1.46-0.31c0.39-0.09,0.83-0.19,1.25-0.3c0.31-0.09,0.59-0.17,0.91-0.25c0.61-0.17,1.28-0.35,1.83-0.54
	c0.07,0,0.04-0.04,0.12-0.04c1.28-0.43,2.54-0.87,3.77-1.4c7.79-3.35,13.69-9.1,15.01-16c0.41-1.95,0.41-3.99,0.44-6.06
	c0.23-4.23,0.97-8.76,2.87-13.4c1.53-3.71,3.94-7.5,7.42-10.72c3.99-2.79,8.81-4.88,13.67-6.14c6.07-1.63,12.27-2.34,18.21-2.62
	c2.94-0.09,5.83-0.12,8.73-0.53c8.9-1.22,17.6-5.73,24.04-12.42c2.52-2.4,4.77-5.08,6.59-7.98c3.99-6.28,6.28-13.61,6.47-20.76
	c0.18-8.43,0.98-17.43,3.84-26.08c1.19-3.6,2.96-7.07,5.05-10.05c2.44-2.63,5.14-4.7,7.93-6.14c6.65-3.44,13.26-4.2,19.16-4.24
	c5.03-0.14,9.68-2.41,13.35-6.38c3.39-3.67,6.01-8.66,7.59-14.27C369.14,199.66,369.69,192.5,369.16,185.59z M320.67,199.34
	c0,5.58-0.44,11.2-1.68,16.65c-1.11,4.93-2.99,9.74-5.89,13.75c-3.3,3.48-7.48,6.01-11.83,7.5c-5.43,1.93-11.3,2.66-17.24,2.82
	c-2.9-0.01-5.85-0.08-8.89,0.27c-9.34,1.05-18.77,6.04-25.77,13.43c-2.68,2.56-5.13,5.42-7.09,8.5c-4.47,6.78-6.61,14.55-6.64,21.86
	c0.21,8.6-0.64,17.14-4.12,24.75c-1.47,3.17-3.62,6.13-6.19,8.61c-3.01,2.16-6.45,3.82-10.1,4.92c-6.16,1.88-12.63,2.56-19.04,2.64
	c0.05,0-0.02,0,0.01,0.01c-6.26,0.07-12.54,0.07-18.83,0.05c0.01-0.01,0-0.01,0-0.02c-5.55-0.03-11.2-0.43-16.64-1.67
	c-4.99-1.07-9.72-3.06-13.75-5.9c-3.48-3.31-5.99-7.44-7.5-11.82c-1.96-5.46-2.61-11.3-2.81-17.24c0.02-2.9,0.05-5.88-0.28-8.89
	c-1.03-9.19-5.9-18.54-13.17-25.53c-2.63-2.78-5.59-5.27-8.77-7.33c-6.78-4.4-14.59-6.66-21.85-6.64
	c-8.62,0.16-17.13-0.61-24.74-4.12c-3.16-1.46-6.14-3.55-8.62-6.19c-2.12-3-3.8-6.47-4.92-10.1c-1.91-6.17-2.56-12.6-2.64-19.04
	c0,0,0,0.01-0.01,0.01c-0.07-6.27-0.07-12.55-0.05-18.83c-0.01,0,0,0.02,0.02,0.01c0.02-5.6,0.42-11.19,1.67-16.65
	c1.05-4.94,3.06-9.73,5.89-13.75c3.3-3.47,7.43-6.01,11.83-7.5c5.48-1.93,11.3-2.68,17.24-2.82c2.89-0.01,5.9,0.09,8.89-0.28
	c9.17-1.03,18.43-5.9,25.43-13.09c2.84-2.65,5.38-5.62,7.42-8.84c4.42-6.77,6.66-14.56,6.65-21.86c-0.15-8.62,0.61-17.13,4.12-24.74
	c1.45-3.17,3.57-6.13,6.19-8.61c2.98-2.17,6.48-3.83,10.09-4.92c6.18-1.88,12.64-2.54,19.04-2.64c0.01-0.01,0-0.01-0.01-0.01
	c6.26-0.06,12.55-0.08,18.82-0.05c-0.03,0.01,0,0.02,0,0.02c5.58,0.02,11.18,0.43,16.65,1.67c4.96,1.07,9.74,3.03,13.74,5.89
	c3.5,3.32,6.03,7.44,7.5,11.82c1.94,5.46,2.66,11.31,2.82,17.24c-0.05,2.91-0.06,5.88,0.27,8.89c1.06,9.37,6.14,18.93,13.64,25.95
	c2.53,2.62,5.27,4.95,8.3,6.91c6.82,4.41,14.56,6.66,21.85,6.64c8.61-0.16,17.09,0.6,24.74,4.12c3.22,1.46,6.13,3.55,8.61,6.19
	c2.17,3,3.83,6.47,4.93,10.1c1.91,6.16,2.58,12.6,2.64,19.04c0.03,0.01,0-0.01,0.01-0.01c0.08,6.27,0.09,12.55,0.05,18.83
	C320.66,199.34,320.68,199.33,320.67,199.34z M235.75,190.57c0.01,27.24-22.07,49.35-49.34,49.34c-27.24,0-49.36-22.09-49.34-49.34
	c-0.02-27.25,22.1-49.34,49.34-49.34C213.65,141.22,235.76,163.31,235.75,190.57z"/>
</svg>
